HIERARCHY
ROOT Hips
{
OFFSET 0.000000 0.000000 0.000000
CHANNELS 6 Xposition Yposition Zposition Zrotation Xrotation Yrotation 
JOINT Spine
{
OFFSET -0.000000 8.110740 0.000000
CHANNELS 3 Zrotation Xrotation Yrotation 
JOINT Spine1
{
OFFSET -0.000000 21.937449 0.000000
CHANNELS 3 Zrotation Xrotation Yrotation 
JOINT Neck
{
OFFSET -0.000000 21.847355 1.986123
CHANNELS 3 Zrotation Xrotation Yrotation 
JOINT Head
{
OFFSET -0.000000 13.847605 -1.978229
CHANNELS 3 Zrotation Xrotation Yrotation 
End Site
{
OFFSET -0.000000 24.727865 0.000000
}
}
}
JOINT LeftShoulder
{
OFFSET 3.988886 19.638126 -0.276534
CHANNELS 3 Zrotation Xrotation Yrotation 
JOINT LeftArm
{
OFFSET 12.253303 0.000000 0.000000
CHANNELS 3 Zrotation Xrotation Yrotation 
JOINT LeftForeArm
{
OFFSET 31.662882 0.000000 0.000000
CHANNELS 3 Zrotation Xrotation Yrotation 
JOINT LeftHand
{
OFFSET 22.578665 0.000000 0.000000
CHANNELS 3 Zrotation Xrotation Yrotation 
End Site
{
OFFSET 14.836720 0.000000 0.000000
}
}
}
}
}
JOINT RightShoulder
{
OFFSET -3.903774 19.638126 -0.276534
CHANNELS 3 Zrotation Xrotation Yrotation 
JOINT RightArm
{
OFFSET -12.253303 0.000000 0.000000
CHANNELS 3 Zrotation Xrotation Yrotation 
JOINT RightForeArm
{
OFFSET -31.662882 0.000000 0.000000
CHANNELS 3 Zrotation Xrotation Yrotation 
JOINT RightHand
{
OFFSET -22.578665 0.000000 0.000000
CHANNELS 3 Zrotation Xrotation Yrotation 
End Site
{
OFFSET -14.836720 0.000000 0.000000
}
}
}
}
}
}
}
JOINT LeftUpLeg
{
OFFSET 9.891147 0.000000 0.000000
CHANNELS 3 Zrotation Xrotation Yrotation 
JOINT LeftLeg
{
OFFSET -0.000000 -39.041359 0.000000
CHANNELS 3 Zrotation Xrotation Yrotation 
JOINT LeftFoot
{
OFFSET -0.000000 -42.395027 0.000000
CHANNELS 3 Zrotation Xrotation Yrotation 
JOINT LeftToeBase
{
OFFSET -0.000000 -6.429245 14.836720
CHANNELS 3 Zrotation Xrotation Yrotation 
End Site
{
OFFSET -0.000000 0.000000 3.956458
}
}
}
}
}
JOINT RightUpLeg
{
OFFSET -9.891147 0.000000 0.000000
CHANNELS 3 Zrotation Xrotation Yrotation 
JOINT RightLeg
{
OFFSET -0.000000 -39.041359 0.000000
CHANNELS 3 Zrotation Xrotation Yrotation 
JOINT RightFoot
{
OFFSET -0.000000 -42.395027 0.000000
CHANNELS 3 Zrotation Xrotation Yrotation 
JOINT RightToeBase
{
OFFSET -0.000000 -6.429245 14.836720
CHANNELS 3 Zrotation Xrotation Yrotation 
End Site
{
OFFSET -0.000000 0.000000 3.956458
}
}
}
}
}
}
MOTION
Frames:    14
Frame Time:    0.008333
4.150774    44.884350    -15.837796    -89.720285    -69.139010    63.928022    -75.798172    -152.831908    79.583937    -7.573075    369.872778    38.344544    14.372190    286.116501    66.163279    103.193527    283.225765    -0.779025    18.573557    0.696459    3.636169    -11.377254    3.712739    -14.210917    1.071586    0.028938    3.093507    -7.019299    -2.628154    1.945255    -13.622014    -0.051275    8.534196    11.426649    6.433253    -0.142664    -0.670617    0.018253    -3.117690    14.166501    12.468216    -15.162341    9.111608    3.209844    -1.214075    -3.472929    1.092958    -1.879210    -3.935588    -4.983823    8.767555    0.004282    1.046087    -0.042055    -5.504690    0.392168    10.215380    -1.424189    5.106241    7.461374    5.305516    -6.149193    -18.126736    0.275791    0.711702    -1.942467    
4.149049    44.885185    -15.833619    -89.381717    -68.533921    63.617379    -76.893126    -154.191667    78.036849    -6.679238    372.031418    38.071336    15.199364    283.556304    66.000896    100.641897    286.876739    -0.783242    18.574883    0.698750    3.637028    -11.371862    3.736542    -14.192762    1.061594    0.028642    3.090683    -6.975925    -2.666786    1.942860    -13.630025    -0.058767    8.547669    11.423912    6.494444    -0.164087    -0.683382    0.018554    -3.110646    14.171112    12.514111    -15.089605    9.131567    3.233538    -1.182695    -3.470372    1.069078    -1.860818    -3.940448    -4.981822    8.744611    0.005241    1.024966    -0.051568    -5.488835    0.377328    10.222660    -1.412505    5.127231    7.465687    5.293216    -6.160911    -18.110830    0.276131    0.714121    -1.944572    
4.146882    44.885731    -15.829272    -88.651406    -68.362956    63.361494    -78.289359    -155.710562    76.764286    -6.080231    374.145215    38.153227    16.161111    281.726780    65.722044    98.574904    289.960801    -0.789443    18.578148    0.701793    3.638608    -11.372420    3.739197    -14.180654    1.050325    0.028379    3.095156    -6.919815    -2.713308    1.948647    -13.636371    -0.064884    8.559054    11.421251    6.580358    -0.191818    -0.696850    0.018755    -3.084544    14.177572    12.532310    -15.019818    9.149856    3.254240    -1.142297    -3.468571    1.049362    -1.850404    -3.954411    -4.984795    8.715694    0.006042    1.007021    -0.059533    -5.475502    0.362955    10.226473    -1.401139    5.148098    7.468965    5.280271    -6.172560    -18.093916    0.276476    0.715824    -1.946802    
4.142866    44.886173    -15.823211    -88.051151    -68.497980    63.496572    -78.448468    -156.531341    75.442775    -5.898996    375.514267    38.424117    16.300784    281.578794    65.519999    97.971387    290.751499    -0.801913    18.585604    0.703192    3.641373    -11.369487    3.762470    -14.166894    1.047105    0.028242    3.090263    -6.909635    -2.755691    1.963584    -13.641365    -0.070670    8.561139    11.415458    6.657974    -0.213857    -0.707450    0.018860    -3.054914    14.180141    12.559344    -14.950848    9.182748    3.289252    -1.109023    -3.471910    1.026403    -1.833790    -3.981181    -4.992530    8.676719    0.006613    0.989649    -0.065256    -5.449189    0.367074    10.229830    -1.394114    5.163989    7.460882    5.267743    -6.182935    -18.070717    0.276862    0.715886    -1.949513    
4.138139    44.886734    -15.817267    -87.853566    -68.189646    63.761982    -77.703252    -156.644818    74.325270    -6.045937    376.290424    38.594015    15.862336    282.432897    65.440183    98.348997    289.975396    -0.822120    18.595451    0.706422    3.638898    -11.371488    3.773731    -14.154124    1.044184    0.028121    3.085590    -6.875482    -2.801432    2.025038    -13.643218    -0.071419    8.556957    11.403717    6.718870    -0.231246    -0.712967    0.018813    -3.023202    14.172290    12.607578    -14.883487    9.205589    3.312201    -1.071374    -3.474929    1.008961    -1.814123    -4.020338    -5.005769    8.623642    0.006931    0.967102    -0.068532    -5.433209    0.363446    10.224486    -1.387014    5.182330    7.453535    5.254482    -6.194304    -18.047119    0.277217    0.714911    -1.952129    
4.131958    44.887119    -15.810233    -86.814041    -68.342640    63.836940    -79.696377    -158.094911    73.032237    -5.883608    379.049655    39.070027    16.851138    281.659741    65.166088    97.002113    292.532907    -0.842658    18.603767    0.705090    3.649186    -11.369444    3.784737    -14.146463    1.061157    0.028642    3.092258    -6.969527    -2.808435    1.973238    -13.650423    -0.072594    8.544547    11.393860    6.751963    -0.230209    -0.710977    0.018598    -2.997590    14.148587    12.698110    -14.817037    9.240869    3.343972    -1.024356    -3.402307    0.981265    -1.796160    -4.149861    -5.014901    8.558043    0.007116    0.936151    -0.070549    -5.405975    0.370153    10.219081    -1.382393    5.201138    7.440060    5.241611    -6.205951    -18.018894    0.277513    0.712807    -1.954464    
4.124758    44.887615    -15.802497    -84.880151    -69.248437    64.125481    -83.031039    -159.940821    71.945526    -6.469293    382.604694    39.841132    18.453083    281.969656    64.714777    95.710280    295.199370    -0.870078    18.609175    0.704383    3.657324    -11.371643    3.773314    -14.139639    1.073505    0.029046    3.099947    -6.973780    -2.794425    2.026521    -13.657013    -0.068961    8.529953    11.379930    6.766165    -0.219445    -0.703717    0.018281    -2.976608    14.112949    12.831236    -14.751121    9.282312    3.378174    -0.960938    -3.408281    0.973567    -1.778227    -4.212567    -5.042603    8.476800    0.007404    0.897755    -0.073641    -5.322128    0.380834    10.212956    -1.474305    5.237156    7.408356    5.274512    -6.228637    -17.965900    0.277674    0.710469    -1.955873    
4.116835    44.888534    -15.794719    -80.396735    -73.017423    65.142492    -88.566601    -162.088515    72.066007    -10.089468    386.927619    40.836188    21.281029    286.246139    63.866341    95.388667    296.340188    -0.909996    18.614347    0.698436    3.668990    -11.375132    3.761113    -14.134320    1.101368    0.029841    3.104191    -7.115052    -2.793822    2.041360    -13.664562    -0.068881    8.505942    11.362838    6.788322    -0.198603    -0.694206    0.017893    -2.952781    14.074695    12.992482    -14.684164    9.322097    3.407232    -0.889387    -3.412434    0.972575    -1.752032    -4.286730    -5.076524    8.381734    0.008005    0.854438    -0.079916    -5.288160    0.383423    10.204318    -1.472028    5.266287    7.387561    5.260974    -6.241923    -17.925247    0.277689    0.707326    -1.956345    
4.107592    44.889538    -15.786724    -73.166378    -78.121334    66.417917    -96.339516    -162.821639    79.416480    -17.643863    388.976315    44.203933    22.365294    300.217169    60.251888    97.806933    289.025788    -0.961688    18.619118    0.687403    3.682373    -11.380069    3.745417    -14.127467    1.104610    0.030109    3.123169    -7.020247    -2.748260    2.033358    -13.672392    -0.074848    8.481297    11.343236    6.832121    -0.176345    -0.685767    0.017497    -2.923570    14.043049    13.172049    -14.612103    9.367499    3.434448    -0.801767    -3.415880    0.982656    -1.729362    -4.371726    -5.117975    8.275616    0.009032    0.809184    -0.090521    -5.246673    0.384689    10.193643    -1.472019    5.302748    7.362044    5.245923    -6.256037    -17.876530    0.277568    0.703977    -1.955888    
4.097151    44.891064    -15.778244    -66.881231    -101.827417    72.034800    -106.593413    -156.869718    80.444186    4.980320    371.553830    62.149635    16.492599    279.582599    69.786171    113.631010    303.338572    -1.031164    18.623978    0.671836    3.696663    -11.383570    3.741507    -14.117283    1.124602    0.030677    3.125530    -7.119925    -2.758900    2.026446    -13.680343    -0.088157    8.456445    11.320369    6.903433    -0.155832    -0.680063    0.017140    -2.888911    14.023100    13.366457    -14.529969    9.416451    3.478975    -0.704836    -3.419296    0.965251    -1.713303    -4.466065    -5.149948    8.171313    0.010465    0.763759    -0.105295    -5.200051    0.382219    10.182193    -1.474055    5.347219    7.333076    5.229096    -6.271363    -17.820086    0.277325    0.700117    -1.954632    
4.084839    44.893135    -15.769586    -81.430131    -78.852530    55.758918    -105.961593    -137.355263    84.372551    -33.230643    358.210595    46.001712    24.516941    325.658918    63.960064    136.107106    309.642137    -1.123671    18.628242    0.653888    3.711560    -11.387550    3.738616    -14.106303    1.104098    0.030170    3.130798    -6.929903    -2.810027    2.033330    -13.689319    -0.106363    8.435457    11.296158    7.012277    -0.143423    -0.676965    0.016783    -2.841138    14.010406    13.554333    -14.435143    9.468284    3.513671    -0.587863    -3.420721    0.970598    -1.710396    -4.571464    -5.194377    8.060632    0.012218    0.719978    -0.123407    -5.116516    0.377605    10.164733    -1.537532    5.408560    7.290872    5.238257    -6.294169    -17.742210    0.276932    0.696436    -1.952298    
4.069886    44.895336    -15.759409    -88.445182    -119.743766    73.949004    -106.823817    -125.085893    98.998642    -11.212644    339.529042    75.145567    23.704730    307.531645    58.353295    159.186595    269.580368    -1.246862    18.630352    0.636815    3.726725    -11.387967    3.747004    -14.092782    1.107340    0.030194    3.124344    -6.973424    -2.884317    2.047436    -13.701493    -0.124751    8.420338    11.270843    7.131849    -0.134855    -0.670566    0.016328    -2.791008    13.989568    13.746649    -14.325524    9.531831    3.532644    -0.448846    -3.421206    1.029109    -1.717110    -4.688020    -5.266916    7.937033    0.014221    0.678169    -0.144162    -5.028943    0.380973    10.143645    -1.511733    5.516918    7.236559    5.157944    -6.350667    -17.653435    0.276342    0.692661    -1.948581    
4.052934    44.898021    -15.748659    -97.247067    -121.717080    77.524928    -104.710404    -127.708603    106.942022    -11.519023    334.696231    76.326662    27.907131    300.645405    43.745776    155.398949    249.777405    -1.411494    18.629436    0.621930    3.742836    -11.385728    3.763597    -14.079785    1.087736    0.029709    3.128849    -6.813123    -2.921473    2.053680    -13.719231    -0.137762    8.405264    11.245868    7.267635    -0.127871    -0.658193    0.015686    -2.730334    13.951273    13.923329    -14.206198    9.598070    3.545849    -0.300728    -3.421754    1.106090    -1.728433    -4.810976    -5.349911    7.811755    0.016478    0.638534    -0.167624    -4.953262    0.381134    10.113667    -1.529454    5.585663    7.192697    5.137530    -6.370624    -17.563120    0.275511    0.688320    -1.943230    
4.034318    44.901310    -15.737191    -89.703224    -118.867712    71.200626    -92.835097    -130.417624    105.508378    -15.811078    319.080753    65.643337    2.154402    272.930479    60.880390    148.127132    258.748556    -1.626029    18.626030    0.609305    3.757734    -11.382149    3.782970    -14.064238    1.093148    0.029815    3.124159    -6.889530    -2.978121    2.060376    -13.745098    -0.143188    8.391694    11.222287    7.424067    -0.125080    -0.637748    0.014755    -2.651367    13.896840    14.070133    -14.084208    9.700088    3.558494    -0.139055    -3.421687    1.201306    -1.747693    -4.966541    -5.443777    7.686133    0.019020    0.600969    -0.194119    -4.868869    0.378992    10.077373    -1.551718    5.666283    7.148339    5.116865    -6.393003    -17.458057    0.274544    0.683331    -1.936996    
